<?xml version="1.0" encoding="UTF-8"?>
<svg width="130px" height="27px" viewBox="0 0 130 27" version="1.1" xmlns="http://www.w3.org/2000/svg" xmlns:xlink="http://www.w3.org/1999/xlink">
    <!-- Generator: Sketch 53.2 (72643) - https://sketchapp.com -->
    <title>Logo</title>
    <desc>Created with Sketch.</desc>
    <g id="Page-1" stroke="none" stroke-width="1" fill="none" fill-rule="evenodd">
        <g id="Artboard" transform="translate(-152.000000, -17.000000)" fill="#000000" fill-rule="nonzero">
            <g id="Logo" transform="translate(151.000000, 10.000000)">
                <path d="M55.22,18.08 C56.5666734,18.08 57.6366627,18.4766627 58.43,19.27 C59.2233373,20.0633373 59.62,21.2533254 59.62,22.84 L59.62,29 L56.5,29 L56.5,23.32 C56.5,22.4666624 56.3233351,21.8300021 55.97,21.41 C55.6166649,20.9899979 55.1133366,20.78 54.46,20.78 C53.726663,20.78 53.1466688,21.0166643 52.72,21.49 C52.2933312,21.9633357 52.08,22.666662 52.08,23.6 L52.08,29 L48.96,29 L48.96,23.32 C48.96,21.6266582 48.2800068,20.78 46.92,20.78 C46.1999964,20.78 45.6266688,21.0166643 45.2,21.49 C44.7733312,21.9633357 44.56,22.666662 44.56,23.6 L44.56,29 L41.44,29 L41.44,18.24 L44.42,18.24 L44.42,19.48 C44.820002,19.0266644 45.3099971,18.6800012 45.89,18.44 C46.4700029,18.1999988 47.1066632,18.08 47.8,18.08 C48.5600038,18.08 49.2466636,18.2299985 49.86,18.53 C50.4733364,18.8300015 50.9666648,19.2666638 51.34,19.84 C51.7800022,19.2799972 52.3366633,18.8466682 53.01,18.54 C53.6833367,18.2333318 54.419996,18.08 55.22,18.08 Z M68.78,18.08 C69.780005,18.08 70.6899959,18.3099977 71.51,18.77 C72.3300041,19.2300023 72.973331,19.8766625 73.44,20.71 C73.906669,21.5433375 74.14,22.5133278 74.14,23.62 C74.14,24.7266722 73.906669,25.6966625 73.44,26.53 C72.973331,27.3633375 72.3300041,28.0099977 71.51,28.47 C70.6899959,28.9300023 69.780005,29.16 68.78,29.16 C67.4066598,29.16 66.3266706,28.726671 65.54,27.86 L65.54,32.88 L62.42,32.88 L62.42,18.24 L65.4,18.24 L65.4,19.48 C66.1733372,18.546662 67.2999926,18.08 68.78,18.08 Z M68.24,26.6 C69.040004,26.6 69.6966641,26.3300027 70.21,25.79 C70.7233359,25.2499973 70.98,24.5266712 70.98,23.62 C70.98,22.7133288 70.7233359,21.9900027 70.21,21.45 C69.6966641,20.9099973 69.040004,20.64 68.24,20.64 C67.439996,20.64 66.7833359,20.9099973 66.27,21.45 C65.7566641,21.9900027 65.5,22.7133288 65.5,23.62 C65.5,24.5266712 65.7566641,25.2499973 66.27,25.79 C66.7833359,26.3300027 67.439996,26.6 68.24,26.6 Z M82.76,18.08 C84.09334,18.08 85.1699959,18.479996 85.99,19.28 C86.8100041,20.080004 87.22,21.2666588 87.22,22.84 L87.22,29 L84.1,29 L84.1,23.32 C84.1,22.4666624 83.9133352,21.8300021 83.54,21.41 C83.1666648,20.9899979 82.6266702,20.78 81.92,20.78 C81.1333294,20.78 80.506669,21.0233309 80.04,21.51 C79.573331,21.9966691 79.34,22.7199952 79.34,23.68 L79.34,29 L76.22,29 L76.22,14.16 L79.34,14.16 L79.34,19.36 C79.7533354,18.9466646 80.2533304,18.6300011 80.84,18.41 C81.4266696,18.1899989 82.0666632,18.08 82.76,18.08 Z" id="mph"></path>
                <path d="M99.39,29.36 C97.7299917,29.36 96.1250077,29.1350022 94.575,28.685 C93.0249922,28.2349977 91.7800047,27.6500036 90.84,26.93 L92.49,23.27 C93.3900045,23.9300033 94.4599938,24.459998 95.7,24.86 C96.9400062,25.260002 98.1799938,25.46 99.42,25.46 C100.800007,25.46 101.819997,25.2550021 102.48,24.845 C103.140003,24.4349979 103.47,23.8900034 103.47,23.21 C103.47,22.7099975 103.275002,22.2950016 102.885,21.965 C102.494998,21.6349984 101.995003,21.370001 101.385,21.17 C100.774997,20.969999 99.9500052,20.7500012 98.91,20.51 C97.309992,20.1299981 96.0000051,19.7500019 94.98,19.37 C93.9599949,18.9899981 93.0850037,18.3800042 92.355,17.54 C91.6249964,16.6999958 91.26,15.580007 91.26,14.18 C91.26,12.9599939 91.5899967,11.855005 92.25,10.865 C92.9100033,9.87499505 93.9049933,9.0900029 95.235,8.51 C96.5650067,7.9299971 98.1899904,7.64 100.11,7.64 C101.450007,7.64 102.759994,7.7999984 104.04,8.12 C105.320006,8.4400016 106.439995,8.899997 107.4,9.5 L105.9,13.19 C103.95999,12.0899945 102.02001,11.54 100.08,11.54 C98.7199932,11.54 97.7150032,11.7599978 97.065,12.2 C96.4149968,12.6400022 96.09,13.2199964 96.09,13.94 C96.09,14.6600036 96.4649962,15.1949983 97.215,15.545 C97.9650037,15.8950018 99.1099923,16.2399983 100.65,16.58 C102.250008,16.9600019 103.559995,17.3399981 104.58,17.72 C105.600005,18.1000019 106.474996,18.6999959 107.205,19.52 C107.935004,20.3400041 108.3,21.449993 108.3,22.85 C108.3,24.050006 107.965003,25.144995 107.295,26.135 C106.624997,27.125005 105.620007,27.9099971 104.28,28.49 C102.939993,29.0700029 101.31001,29.36 99.39,29.36 Z M121.68,29.36 C119.539989,29.36 117.605009,28.8950047 115.875,27.965 C114.144991,27.0349954 112.785005,25.7450082 111.795,24.095 C110.804995,22.4449917 110.31,20.5800104 110.31,18.5 C110.31,16.4199896 110.804995,14.5550083 111.795,12.905 C112.785005,11.2549918 114.144991,9.96500465 115.875,9.035 C117.605009,8.10499535 119.549989,7.64 121.71,7.64 C123.530009,7.64 125.174993,7.9599968 126.645,8.6 C128.115007,9.2400032 129.349995,10.159994 130.35,11.36 L127.23,14.24 C125.809993,12.5999918 124.05001,11.78 121.95,11.78 C120.649993,11.78 119.490005,12.0649972 118.47,12.635 C117.449995,13.2050028 116.655003,13.9999949 116.085,15.02 C115.514997,16.0400051 115.23,17.1999935 115.23,18.5 C115.23,19.8000065 115.514997,20.9599949 116.085,21.98 C116.655003,23.0000051 117.449995,23.7949972 118.47,24.365 C119.490005,24.9350029 120.649993,25.22 121.95,25.22 C124.05001,25.22 125.809993,24.3900083 127.23,22.73 L130.35,25.61 C129.349995,26.8300061 128.110007,27.7599968 126.63,28.4 C125.149993,29.0400032 123.500009,29.36 121.68,29.36 Z" id="SC"></path>
                <path d="M12.66,29.36 C10.4799891,29.36 8.51500875,28.8900047 6.765,27.95 C5.01499125,27.0099953 3.64500495,25.7150083 2.655,24.065 C1.66499505,22.4149917 1.17,20.5600103 1.17,18.5 C1.17,16.4399897 1.66499505,14.5850083 2.655,12.935 C3.64500495,11.2849918 5.01499125,9.9900047 6.765,9.05 C8.51500875,8.1099953 10.4799891,7.64 12.66,7.64 C14.8400109,7.64 16.7999913,8.1099953 18.54,9.05 C20.2800087,9.9900047 21.649995,11.2849918 22.65,12.935 C23.650005,14.5850083 24.15,16.4399897 24.15,18.5 C24.15,20.5600103 23.650005,22.4149917 22.65,24.065 C21.649995,25.7150083 20.2800087,27.0099953 18.54,27.95 C16.7999913,28.8900047 14.8400109,29.36 12.66,29.36 Z M12.66,25.22 C13.9000062,25.22 15.019995,24.9350029 16.02,24.365 C17.020005,23.7949972 17.8049971,23.0000051 18.375,21.98 C18.9450029,20.9599949 19.23,19.8000065 19.23,18.5 C19.23,17.1999935 18.9450029,16.0400051 18.375,15.02 C17.8049971,13.9999949 17.020005,13.2050028 16.02,12.635 C15.019995,12.0649972 13.9000062,11.78 12.66,11.78 C11.4199938,11.78 10.300005,12.0649972 9.3,12.635 C8.299995,13.2050028 7.51500285,13.9999949 6.945,15.02 C6.37499715,16.0400051 6.09,17.1999935 6.09,18.5 C6.09,19.8000065 6.37499715,20.9599949 6.945,21.98 C7.51500285,23.0000051 8.299995,23.7949972 9.3,24.365 C10.300005,24.9350029 11.4199938,25.22 12.66,25.22 Z" id="O"></path>
                <path d="M30.84,33.24 C29.1399915,33.24 27.6150067,32.8850036 26.265,32.175 C24.9149932,31.4649965 23.8600038,30.4800063 23.1,29.22 C22.3399962,27.9599937 21.96,26.530008 21.96,24.93 C21.96,23.329992 22.3399962,21.9000063 23.1,20.64 C23.8600038,19.3799937 24.9149932,18.3950035 26.265,17.685 C27.6150067,16.9749964 29.1399915,16.62 30.84,16.62 C32.5400085,16.62 34.0599933,16.9749964 35.4,17.685 C36.7400067,18.3950035 37.7899962,19.3799937 38.55,20.64 C39.3100038,21.9000063 39.69,23.329992 39.69,24.93 C39.69,26.530008 39.3100038,27.9599937 38.55,29.22 C37.7899962,30.4800063 36.7400067,31.4649965 35.4,32.175 C34.0599933,32.8850036 32.5400085,33.24 30.84,33.24 Z M30.84,29.4 C32.040006,29.4 33.0249961,28.995004 33.795,28.185 C34.5650038,27.3749959 34.95,26.2900068 34.95,24.93 C34.95,23.5699932 34.5650038,22.4850041 33.795,21.675 C33.0249961,20.864996 32.040006,20.46 30.84,20.46 C29.639994,20.46 28.6500039,20.864996 27.87,21.675 C27.0899961,22.4850041 26.7,23.5699932 26.7,24.93 C26.7,26.2900068 27.0899961,27.3749959 27.87,28.185 C28.6500039,28.995004 29.639994,29.4 30.84,29.4 Z" id="o"></path>
            </g>
        </g>
    </g>
</svg>